<svg version="1.0" viewBox="0 0 1280.000000 640.000000">
<metadata>
Created by potrace 1.15, written by Peter Selinger 2001-2017
</metadata>
<g transform="translate(0.000000,640.000000) scale(0.100000,-0.100000)" stroke="none">
<path d="M2075 6056 c-154 -30 -257 -76 -366 -164 -367 -296 -797 -1174 -1275
-2607 -123 -370 -355 -1123 -370 -1200 -3 -19 -1 -49 6 -69 10 -31 8 -39 -15
-75 -29 -47 -55 -137 -55 -193 0 -175 163 -443 346 -569 203 -139 733 -311
1385 -448 1530 -322 3429 -479 4409 -365 524 61 1046 211 1580 454 284 129
671 339 1084 589 288 174 503 291 636 345 87 35 216 49 328 36 118 -14 200
-38 436 -125 350 -128 462 -160 692 -194 364 -56 798 -52 1110 8 215 42 452
128 589 213 188 119 232 183 188 275 -32 69 -97 87 -203 57 -86 -24 -278 -29
-385 -11 -176 31 -328 94 -497 205 -132 88 -237 173 -456 371 -221 199 -266
236 -419 338 -249 166 -504 268 -719 289 l-71 6 -6 73 c-6 88 -59 249 -121
373 -101 202 -301 461 -480 625 -100 91 -179 203 -237 338 -93 214 -161 512
-163 714 -1 145 10 182 74 246 31 31 50 59 54 82 9 50 -18 111 -61 138 -82 51
-200 -7 -378 -185 -218 -219 -354 -493 -412 -829 -14 -80 -18 -158 -18 -367 1
-298 8 -377 79 -805 57 -344 70 -461 63 -556 -13 -162 -85 -279 -174 -279 -45
1 -135 43 -240 113 -107 71 -231 169 -638 506 -509 421 -900 707 -1320 966
-137 85 -621 368 -965 565 -1178 675 -1906 997 -2495 1106 -121 22 -426 28
-520 10z m538 -290 c535 -112 1218 -419 2287 -1029 389 -222 925 -536 1057
-618 409 -258 795 -543 1278 -945 385 -320 493 -406 638 -503 281 -189 495
-198 660 -28 133 138 186 346 158 621 -6 60 -31 231 -56 380 -24 149 -51 327
-60 396 -23 173 -31 516 -16 633 15 114 52 274 81 347 27 71 102 220 110 220
3 0 12 -41 19 -92 32 -226 105 -480 191 -664 76 -163 129 -234 309 -418 177
-182 259 -284 348 -435 129 -218 167 -382 123 -532 -16 -55 -9 -89 28 -130 37
-41 92 -51 175 -32 121 29 294 -6 486 -98 215 -102 369 -212 640 -458 382
-346 603 -494 876 -585 112 -37 116 -33 -50 -61 -347 -58 -818 -41 -1160 41
-113 27 -222 63 -477 158 -212 79 -336 112 -480 127 -132 14 -276 0 -393 -39
-115 -38 -341 -156 -645 -337 -571 -339 -870 -503 -1151 -628 -622 -277 -1155
-411 -1784 -448 -248 -15 -914 -6 -1245 15 -1612 107 -3340 422 -3957 721
-108 53 -192 126 -258 225 -69 104 -91 184 -63 223 12 16 20 15 113 -18 256
-89 712 -219 1330 -380 204 -53 451 -118 550 -145 334 -91 419 -104 474 -76
86 45 87 186 2 231 -15 7 -152 45 -306 84 -403 103 -1062 303 -1734 527 -190
63 -347 116 -349 118 -4 4 151 521 229 764 448 1396 872 2348 1205 2701 112
119 172 155 309 187 98 22 351 12 508 -20z"/>
<path d="M3330 2137 c-201 -46 -301 -234 -215 -402 57 -112 171 -171 314 -163
247 14 378 257 241 447 -71 97 -213 146 -340 118z"/>
</g>
</svg>
