<svg xmlns="http://www.w3.org/2000/svg" width="30" height="30" viewBox="0 0 30 30">
  <path id="phone" d="M17.7,2.7a15,15,0,1,1-15,15,15.032,15.032,0,0,1,15-15Zm-4.937,7.31,1.8,1.709a1.739,1.739,0,0,1,.1,2.278l-1.234,1.234a31.955,31.955,0,0,0,6.645,6.74l1.234-1.234a1.554,1.554,0,0,1,2.278.1l1.709,1.709a1.637,1.637,0,0,1,.1,2.278c-5.126,5.126-19.936-9.778-14.81-14.9a1.522,1.522,0,0,1,2.183.1ZM17.7,4.128A13.528,13.528,0,1,0,31.18,17.7,13.572,13.572,0,0,0,17.7,4.128Z" transform="translate(-2.699 -2.703)"/>
</svg>
