<svg xmlns="http://www.w3.org/2000/svg" width="105.821" height="89.935" viewBox="0 0 105.821 89.935" class="w-full h-auto">
  <g id="testimonial" transform="translate(-0.18 -6.529)">
    <g id="Group_1" data-name="Group 1" transform="translate(0.18 6.529)">
      <path id="Path_1429" data-name="Path 1429" d="M94.981,76.588A35.449,35.449,0,0,0,103.176,54c0-21.239-19.356-38.517-43.145-38.517a48.389,48.389,0,0,0-8.642.77,2.5,2.5,0,0,0,.892,4.913,43.3,43.3,0,0,1,7.749-.691C81.066,20.47,98.184,35.508,98.184,54a30.665,30.665,0,0,1-7.763,20.259,2.5,2.5,0,0,0-.565,2.1l2.328,12.366L79.7,84.482a2.524,2.524,0,0,0-1.624.007,70.356,70.356,0,0,1-18.043,3.026c-21.037,0-38.152-15.036-38.152-33.52a2.5,2.5,0,1,0-4.992,0c0,21.237,19.352,38.51,43.144,38.51a75.409,75.409,0,0,0,18.855-3.027l15.739,5.339a2.494,2.494,0,0,0,3.255-2.826Z" transform="translate(2.645 -5.016)" fill="#570e22"/>
      <path id="Path_1430" data-name="Path 1430" d="M35.194,50.83A2.5,2.5,0,0,0,38.814,48.2L36.578,35.169l9.47-9.231a2.5,2.5,0,0,0-1.384-4.259l-13.083-1.9L25.725,7.92a2.5,2.5,0,0,0-4.478,0L15.4,19.78l-13.078,1.9A2.5,2.5,0,0,0,.935,25.939L10.4,35.17,8.167,48.2a2.5,2.5,0,0,0,3.622,2.63l11.7-6.151ZM13.942,44.057l1.6-9.339a2.492,2.492,0,0,0-.718-2.211L8.04,25.893l9.374-1.361a2.5,2.5,0,0,0,1.881-1.366l4.2-8.5,4.2,8.5a2.508,2.508,0,0,0,1.88,1.366l9.376,1.361-6.787,6.615a2.5,2.5,0,0,0-.718,2.211l1.6,9.339L24.649,39.65a2.5,2.5,0,0,0-2.322,0Z" transform="translate(-0.18 -6.529)" fill="#570e22"/>
      <path id="Path_1431" data-name="Path 1431" d="M75.448,35.084H38.283a2.5,2.5,0,1,0,0,4.992H75.448a2.5,2.5,0,1,0,0-4.992Z" transform="translate(5.841 -1.7)" fill="#570e22"/>
      <path id="Path_1432" data-name="Path 1432" d="M77.944,48.658a2.5,2.5,0,0,0-2.5-2.5H38.283a2.5,2.5,0,1,0,0,4.992H75.448A2.494,2.494,0,0,0,77.944,48.658Z" transform="translate(5.841 0.173)" fill="#570e22"/>
      <path id="Path_1433" data-name="Path 1433" d="M38.283,57.238a2.5,2.5,0,0,0,0,4.993H53.322a2.5,2.5,0,0,0,0-4.993Z" transform="translate(5.841 2.046)" fill="#570e22"/>
    </g>
  </g>
</svg>
